<svg xmlns="http://www.w3.org/2000/svg" data-name="Layer 1" viewBox="0 0 100 125" x="0px" y="0px"><title>56 all</title><path d="M81.85,27.91s0-.08,0-.12a2,2,0,0,0-.14-.26l0-.08a2,2,0,0,0-.25-.3L69.13,14.89a2,2,0,0,0-2.83,2.83l8.84,8.84H30a12,12,0,0,0-12,12V48.81a2,2,0,0,0,4,0V38.56a8,8,0,0,1,8-8H75.14L66.3,39.4a2,2,0,1,0,2.83,2.83L81.38,30a2,2,0,0,0,.25-.3l0-.08a2,2,0,0,0,.14-.26s0-.08,0-.12a2,2,0,0,0,.08-.25,2,2,0,0,0,0-.79A2,2,0,0,0,81.85,27.91Z"/><path d="M80,48.19a2,2,0,0,0-2,2V61.44a8,8,0,0,1-8,8H24.86L33.7,60.6a2,2,0,0,0-2.83-2.83L18.62,70a2,2,0,0,0-.25.31s-.05.1-.08.15a1.17,1.17,0,0,0-.17.4c0,.06,0,.11-.05.17a2,2,0,0,0,0,.78c0,.06,0,.12.05.17a1.17,1.17,0,0,0,.17.4s0,.1.08.15a2,2,0,0,0,.25.31L30.87,85.11a2,2,0,0,0,2.83-2.83l-8.84-8.84H70a12,12,0,0,0,12-12V50.19A2,2,0,0,0,80,48.19Z"/></svg>